# xmcd CD database file
#
# Track frame offsets:
#	150
#	31086
#	55612
#	80054
#	93566
#	120461
#	137385
#	162190
#	193136
#	210232
#	231073
#
# Disc length: 3622 seconds
#
# Revision: 0
# Processed by: cddbd v1.5.2PL0 Copyright (c) Steve Scherf et al.
# Submitted via: CDex 1.51
#
DISCID=830e240b
DTITLE=Arc Lab - No Spectre
DYEAR=2007
DGENRE=New Age
TTITLE0=I'm All Vectors
TTITLE1=Versions
TTITLE2=Natch
TTITLE3=So Much For Surprises
TTITLE4=The Several Song
TTITLE5=Dead Days
TTITLE6=Miss Wet T-Shirt Vancouver 2006
TTITLE7=Plays Tim Arndt
TTITLE8=Spectres
TTITLE9=The Past!
TTITLE10=All Parallels
EXTD=YEAR: 2007
EXTT0=
EXTT1=
EXTT2=
EXTT3=
EXTT4=
EXTT5=
EXTT6=
EXTT7=
EXTT8=
EXTT9=
EXTT10=
PLAYORDER=
